
      <svg data-logo="logo" xmlns="http://www.w3.org/2000/svg" viewBox="0 0 146 43">
        <g id="logogram" transform="translate(0, 1) rotate(0) "><path d="M40.1509 20.27C40.1509 31.3157 31.1966 40.27 20.1509 40.27C9.10524 40.27 0.150879 31.3157 0.150879 20.27C0.150879 9.2243 9.10524 0.269989 20.1509 0.269989C31.1966 0.269989 40.1509 9.2243 40.1509 20.27Z" fill="#68DBFF"/><path d="M63.1509 20.27C63.1509 31.3157 54.1964 40.27 43.1508 40.27C32.1052 40.27 23.1509 31.3157 23.1509 20.27C23.1509 9.2243 32.1052 0.269989 43.1508 0.269989C54.1964 0.269989 63.1509 9.2243 63.1509 20.27Z" fill="#FF7917"/><path fill-rule="evenodd" clip-rule="evenodd" d="M31.6509 36.6351C36.792 33.0157 40.1509 27.0351 40.1509 20.27C40.1509 13.5049 36.792 7.52425 31.6509 3.90488C26.5098 7.52425 23.1509 13.5049 23.1509 20.27C23.1509 27.0351 26.5098 33.0157 31.6509 36.6351Z" fill="#5D2C02"/></g>
        <g id="logotype" transform="translate(70, 8.5)"><path fill="#ffffff" d="M17.64 26.38L17.64 26.38Q14.58 26.38 12.31 25.44Q10.05 24.50 8.79 22.65Q7.52 20.80 7.45 18.10L7.45 18.10L12.53 18.10Q12.63 19.39 13.30 20.25Q13.96 21.11 15.07 21.54Q16.19 21.97 17.59 21.97L17.59 21.97Q18.99 21.97 20.02 21.57Q21.06 21.16 21.64 20.43Q22.22 19.69 22.22 18.72L22.22 18.72Q22.22 17.85 21.70 17.26Q21.18 16.67 20.20 16.24Q19.23 15.81 17.83 15.49L17.83 15.49L15.02 14.79Q11.79 14.00 9.96 12.32Q8.14 10.64 8.14 7.87L8.14 7.87Q8.14 5.56 9.38 3.83Q10.61 2.11 12.78 1.15Q14.94 0.19 17.71 0.19L17.71 0.19Q20.53 0.19 22.63 1.16Q24.73 2.13 25.91 3.84Q27.09 5.56 27.12 7.80L27.12 7.80L22.08 7.80Q21.94 6.26 20.77 5.42Q19.60 4.59 17.66 4.59L17.66 4.59Q16.34 4.59 15.40 4.96Q14.46 5.34 13.96 6.00Q13.47 6.67 13.47 7.53L13.47 7.53Q13.47 8.47 14.04 9.09Q14.61 9.71 15.54 10.10Q16.48 10.48 17.55 10.74L17.55 10.74L19.86 11.30Q21.47 11.66 22.85 12.28Q24.23 12.89 25.28 13.79Q26.32 14.69 26.89 15.92Q27.46 17.15 27.46 18.75L27.46 18.75Q27.46 21.06 26.30 22.78Q25.14 24.50 22.94 25.44Q20.73 26.38 17.64 26.38ZM34.16 26.38L34.16 26.38Q32.35 26.38 30.91 25.74Q29.46 25.09 28.63 23.82Q27.80 22.55 27.80 20.65L27.80 20.65Q27.80 19.06 28.39 17.98Q28.98 16.91 30.00 16.26Q31.02 15.61 32.31 15.27Q33.60 14.93 35.02 14.79L35.02 14.79Q36.67 14.62 37.69 14.47Q38.71 14.33 39.18 14.01Q39.65 13.70 39.65 13.08L39.65 13.08L39.65 12.99Q39.65 12.17 39.31 11.61Q38.96 11.05 38.30 10.75Q37.63 10.45 36.66 10.45L36.66 10.45Q35.67 10.45 34.93 10.75Q34.20 11.05 33.73 11.54Q33.27 12.04 33.05 12.65L33.05 12.65L28.35 11.87Q28.85 10.21 29.99 9.05Q31.14 7.88 32.84 7.27Q34.54 6.65 36.66 6.65L36.66 6.65Q38.21 6.65 39.66 7.02Q41.12 7.39 42.27 8.16Q43.42 8.93 44.10 10.16Q44.77 11.39 44.77 13.13L44.77 13.13L44.77 26L39.92 26L39.92 23.35L39.75 23.35Q39.29 24.24 38.52 24.91Q37.75 25.59 36.67 25.98Q35.58 26.38 34.16 26.38ZM35.61 22.77L35.61 22.77Q36.83 22.77 37.74 22.29Q38.66 21.81 39.17 20.99Q39.68 20.17 39.68 19.16L39.68 19.16L39.68 17.10Q39.46 17.27 39.00 17.40Q38.54 17.54 37.97 17.64Q37.41 17.75 36.86 17.83Q36.32 17.92 35.89 17.97L35.89 17.97Q34.95 18.10 34.23 18.41Q33.51 18.72 33.12 19.22Q32.73 19.73 32.73 20.51L32.73 20.51Q32.73 21.25 33.10 21.75Q33.48 22.26 34.12 22.51Q34.76 22.77 35.61 22.77ZM52.00 26L46.87 26L46.87 6.89L51.83 6.89L51.83 10.23L52.04 10.23Q52.57 8.45 53.80 7.54Q55.04 6.64 56.65 6.64L56.65 6.64Q57.04 6.64 57.50 6.68Q57.95 6.72 58.31 6.81L58.31 6.81L58.31 11.39Q57.97 11.27 57.32 11.20Q56.67 11.13 56.09 11.13L56.09 11.13Q54.92 11.13 53.98 11.64Q53.04 12.14 52.52 13.04Q52.00 13.93 52.00 15.13L52.00 15.13L52.00 26ZM64.18 26.38L64.18 26.38Q62.37 26.38 60.93 25.74Q59.49 25.09 58.66 23.82Q57.83 22.55 57.83 20.65L57.83 20.65Q57.83 19.06 58.42 17.98Q59.01 16.91 60.02 16.26Q61.04 15.61 62.33 15.27Q63.62 14.93 65.04 14.79L65.04 14.79Q66.70 14.62 67.71 14.47Q68.73 14.33 69.20 14.01Q69.67 13.70 69.67 13.08L69.67 13.08L69.67 12.99Q69.67 12.17 69.33 11.61Q68.99 11.05 68.32 10.75Q67.65 10.45 66.68 10.45L66.68 10.45Q65.69 10.45 64.95 10.75Q64.22 11.05 63.76 11.54Q63.30 12.04 63.07 12.65L63.07 12.65L58.37 11.87Q58.87 10.21 60.01 9.05Q61.16 7.88 62.86 7.27Q64.56 6.65 66.68 6.65L66.68 6.65Q68.24 6.65 69.69 7.02Q71.14 7.39 72.29 8.16Q73.45 8.93 74.12 10.16Q74.80 11.39 74.80 13.13L74.80 13.13L74.80 26L69.94 26L69.94 23.35L69.77 23.35Q69.31 24.24 68.54 24.91Q67.77 25.59 66.69 25.98Q65.60 26.38 64.18 26.38ZM65.64 22.77L65.64 22.77Q66.85 22.77 67.77 22.29Q68.68 21.81 69.19 20.99Q69.70 20.17 69.70 19.16L69.70 19.16L69.70 17.10Q69.48 17.27 69.02 17.40Q68.56 17.54 68.00 17.64Q67.43 17.75 66.88 17.83Q66.34 17.92 65.91 17.97L65.91 17.97Q64.97 18.10 64.25 18.41Q63.54 18.72 63.14 19.22Q62.75 19.73 62.75 20.51L62.75 20.51Q62.75 21.25 63.13 21.75Q63.50 22.26 64.14 22.51Q64.78 22.77 65.64 22.77Z"/></g>
        
      </svg>
    